<svg width="77" height="21" viewBox="0 0 77 21" fill="none" xmlns="http://www.w3.org/2000/svg">
<rect width="77" height="21" rx="3" fill="url(#paint0_linear_516_362)"/>
<path d="M12.2503 11.9998V15.75L9.99995 14.625L7.75027 15.75V12.0001M13.75 9C13.75 11.0711 12.0711 12.75 10 12.75C7.92893 12.75 6.25 11.0711 6.25 9C6.25 6.92893 7.92893 5.25 10 5.25C12.0711 5.25 13.75 6.92893 13.75 9Z" stroke="#433000" stroke-linecap="round" stroke-linejoin="round"/>
<path d="M19.373 15V7H24.3887V8.03906H20.5801V10.4766H24.127V11.5117H20.5801V13.9609H24.4355V15H19.373ZM27.0752 11.4375V15H25.9072V9H27.0283V9.97656H27.1025C27.2406 9.65885 27.4567 9.40365 27.751 9.21094C28.0479 9.01823 28.4215 8.92188 28.8721 8.92188C29.2809 8.92188 29.639 9.00781 29.9463 9.17969C30.2536 9.34896 30.4919 9.60156 30.6611 9.9375C30.8304 10.2734 30.915 10.6888 30.915 11.1836V15H29.7471V11.3242C29.7471 10.8893 29.6338 10.5495 29.4072 10.3047C29.1807 10.0573 28.8695 9.93359 28.4736 9.93359C28.2028 9.93359 27.9619 9.99219 27.751 10.1094C27.5426 10.2266 27.3773 10.3984 27.2549 10.625C27.1351 10.849 27.0752 11.1198 27.0752 11.4375ZM35.2822 9V9.9375H32.0049V9H35.2822ZM32.8838 7.5625H34.0518V13.2383C34.0518 13.4648 34.0856 13.6354 34.1533 13.75C34.221 13.862 34.3083 13.9388 34.415 13.9805C34.5244 14.0195 34.6429 14.0391 34.7705 14.0391C34.8643 14.0391 34.9463 14.0326 35.0166 14.0195C35.0869 14.0065 35.1416 13.9961 35.1807 13.9883L35.3916 14.9531C35.3239 14.9792 35.2275 15.0052 35.1025 15.0313C34.9775 15.0599 34.8213 15.0755 34.6338 15.0781C34.3265 15.0833 34.04 15.0286 33.7744 14.9141C33.5088 14.7995 33.2939 14.6224 33.1299 14.3828C32.9658 14.1432 32.8838 13.8424 32.8838 13.4805V7.5625ZM39.0957 15.1211C38.5046 15.1211 37.9954 14.9948 37.5684 14.7422C37.1439 14.487 36.8158 14.1289 36.584 13.668C36.3548 13.2044 36.2402 12.6615 36.2402 12.0391C36.2402 11.4245 36.3548 10.8828 36.584 10.4141C36.8158 9.94531 37.1387 9.57943 37.5527 9.31641C37.9694 9.05339 38.4564 8.92188 39.0137 8.92188C39.3522 8.92188 39.6803 8.97786 39.998 9.08984C40.3158 9.20182 40.6009 9.3776 40.8535 9.61719C41.1061 9.85677 41.3053 10.168 41.4512 10.5508C41.597 10.931 41.6699 11.3932 41.6699 11.9375V12.3516H36.9004V11.4766H40.5254C40.5254 11.1693 40.4629 10.8971 40.3379 10.6602C40.2129 10.4206 40.0371 10.2318 39.8105 10.0937C39.5866 9.95573 39.3236 9.88672 39.0215 9.88672C38.6934 9.88672 38.4069 9.96745 38.1621 10.1289C37.9199 10.2878 37.7324 10.4961 37.5996 10.7539C37.4694 11.0091 37.4043 11.2865 37.4043 11.5859V12.2695C37.4043 12.6706 37.4746 13.0117 37.6152 13.293C37.7585 13.5742 37.9577 13.7891 38.2129 13.9375C38.4681 14.0833 38.7663 14.1562 39.1074 14.1562C39.3288 14.1562 39.5306 14.125 39.7129 14.0625C39.8952 13.9974 40.0527 13.901 40.1855 13.7734C40.3184 13.6458 40.4199 13.4883 40.4902 13.3008L41.5957 13.5C41.5072 13.8255 41.3483 14.1107 41.1191 14.3555C40.8926 14.5977 40.6074 14.7865 40.2637 14.9219C39.9225 15.0547 39.5332 15.1211 39.0957 15.1211ZM42.9658 15V9H44.0947V9.95312H44.1572C44.2666 9.63021 44.4593 9.3763 44.7354 9.19141C45.014 9.00391 45.3291 8.91016 45.6807 8.91016C45.7536 8.91016 45.8395 8.91276 45.9385 8.91797C46.04 8.92318 46.1195 8.92969 46.1768 8.9375V10.0547C46.1299 10.0417 46.0465 10.0273 45.9268 10.0117C45.807 9.99349 45.6872 9.98437 45.5674 9.98437C45.2913 9.98437 45.0452 10.043 44.8291 10.1602C44.6156 10.2747 44.4463 10.4349 44.3213 10.6406C44.1963 10.8437 44.1338 11.0755 44.1338 11.3359V15H42.9658ZM47.1875 17.25V9H48.3281V9.97266H48.4258C48.4935 9.84766 48.5911 9.70312 48.7188 9.53906C48.8464 9.375 49.0234 9.23177 49.25 9.10937C49.4766 8.98438 49.776 8.92188 50.1484 8.92188C50.6328 8.92188 51.0651 9.04427 51.4453 9.28906C51.8255 9.53385 52.1237 9.88672 52.3398 10.3477C52.5586 10.8086 52.668 11.3633 52.668 12.0117C52.668 12.6602 52.5599 13.2161 52.3438 13.6797C52.1276 14.1406 51.8307 14.4961 51.4531 14.7461C51.0755 14.9935 50.6445 15.1172 50.1602 15.1172C49.7956 15.1172 49.4974 15.056 49.2656 14.9336C49.0365 14.8112 48.8568 14.668 48.7266 14.5039C48.5964 14.3398 48.4961 14.194 48.4258 14.0664H48.3555V17.25H47.1875ZM48.332 12C48.332 12.4219 48.3932 12.7917 48.5156 13.1094C48.638 13.4271 48.8151 13.6758 49.0469 13.8555C49.2786 14.0326 49.5625 14.1211 49.8984 14.1211C50.2474 14.1211 50.5391 14.0286 50.7734 13.8437C51.0078 13.6562 51.1849 13.4023 51.3047 13.082C51.4271 12.7617 51.4883 12.401 51.4883 12C51.4883 11.6042 51.4284 11.2487 51.3086 10.9336C51.1914 10.6185 51.0143 10.3698 50.7773 10.1875C50.543 10.0052 50.25 9.91406 49.8984 9.91406C49.5599 9.91406 49.2734 10.0013 49.0391 10.1758C48.8073 10.3503 48.6315 10.5937 48.5117 10.9062C48.3919 11.2187 48.332 11.5833 48.332 12ZM53.9766 15V9H55.1055V9.95312H55.168C55.2773 9.63021 55.4701 9.3763 55.7461 9.19141C56.0247 9.00391 56.3398 8.91016 56.6914 8.91016C56.7643 8.91016 56.8503 8.91276 56.9492 8.91797C57.0508 8.92318 57.1302 8.92969 57.1875 8.9375V10.0547C57.1406 10.0417 57.0573 10.0273 56.9375 10.0117C56.8177 9.99349 56.6979 9.98437 56.5781 9.98437C56.3021 9.98437 56.056 10.043 55.8398 10.1602C55.6263 10.2747 55.457 10.4349 55.332 10.6406C55.207 10.8437 55.1445 11.0755 55.1445 11.3359V15H53.9766ZM58.1982 15V9H59.3662V15H58.1982ZM58.7881 8.07422C58.585 8.07422 58.4105 8.00651 58.2646 7.87109C58.1214 7.73307 58.0498 7.56901 58.0498 7.37891C58.0498 7.1862 58.1214 7.02214 58.2646 6.88672C58.4105 6.7487 58.585 6.67969 58.7881 6.67969C58.9912 6.67969 59.1644 6.7487 59.3076 6.88672C59.4535 7.02214 59.5264 7.1862 59.5264 7.37891C59.5264 7.56901 59.4535 7.73307 59.3076 7.87109C59.1644 8.00651 58.9912 8.07422 58.7881 8.07422ZM65.4336 10.4648L64.375 10.6523C64.3307 10.5169 64.2604 10.388 64.1641 10.2656C64.0703 10.1432 63.9427 10.043 63.7813 9.96484C63.6198 9.88672 63.418 9.84766 63.1758 9.84766C62.8451 9.84766 62.569 9.92187 62.3477 10.0703C62.1263 10.2161 62.0156 10.4049 62.0156 10.6367C62.0156 10.8372 62.0898 10.9987 62.2383 11.1211C62.3867 11.2435 62.6263 11.3437 62.957 11.4219L63.9102 11.6406C64.4622 11.7682 64.8737 11.9648 65.1445 12.2305C65.4154 12.4961 65.5508 12.8411 65.5508 13.2656C65.5508 13.625 65.4466 13.9453 65.2383 14.2266C65.0326 14.5052 64.7448 14.724 64.375 14.8828C64.0078 15.0417 63.582 15.1211 63.0977 15.1211C62.4258 15.1211 61.8776 14.9779 61.4531 14.6914C61.0286 14.4023 60.7682 13.9922 60.6719 13.4609L61.8008 13.2891C61.8711 13.5833 62.0156 13.806 62.2344 13.957C62.4531 14.1055 62.7383 14.1797 63.0898 14.1797C63.4727 14.1797 63.7786 14.1003 64.0078 13.9414C64.237 13.7799 64.3516 13.5833 64.3516 13.3516C64.3516 13.1641 64.2813 13.0065 64.1406 12.8789C64.0026 12.7513 63.7904 12.6549 63.5039 12.5898L62.4883 12.3672C61.9284 12.2396 61.5143 12.0365 61.2461 11.7578C60.9805 11.4792 60.8477 11.1263 60.8477 10.6992C60.8477 10.3451 60.9466 10.0352 61.1445 9.76953C61.3424 9.50391 61.6159 9.29687 61.9648 9.14844C62.3138 8.9974 62.7135 8.92188 63.1641 8.92188C63.8125 8.92188 64.3229 9.0625 64.6953 9.34375C65.0677 9.6224 65.3138 9.99609 65.4336 10.4648ZM69.4209 15.1211C68.8298 15.1211 68.3206 14.9948 67.8936 14.7422C67.4691 14.487 67.141 14.1289 66.9092 13.668C66.68 13.2044 66.5654 12.6615 66.5654 12.0391C66.5654 11.4245 66.68 10.8828 66.9092 10.4141C67.141 9.94531 67.4639 9.57943 67.8779 9.31641C68.2946 9.05339 68.7816 8.92188 69.3389 8.92188C69.6774 8.92188 70.0055 8.97786 70.3232 9.08984C70.641 9.20182 70.9261 9.3776 71.1787 9.61719C71.4313 9.85677 71.6305 10.168 71.7764 10.5508C71.9222 10.931 71.9951 11.3932 71.9951 11.9375V12.3516H67.2256V11.4766H70.8506C70.8506 11.1693 70.7881 10.8971 70.6631 10.6602C70.5381 10.4206 70.3623 10.2318 70.1357 10.0937C69.9118 9.95573 69.6488 9.88672 69.3467 9.88672C69.0186 9.88672 68.7321 9.96745 68.4873 10.1289C68.2451 10.2878 68.0576 10.4961 67.9248 10.7539C67.7946 11.0091 67.7295 11.2865 67.7295 11.5859V12.2695C67.7295 12.6706 67.7998 13.0117 67.9404 13.293C68.0837 13.5742 68.2829 13.7891 68.5381 13.9375C68.7933 14.0833 69.0915 14.1562 69.4326 14.1562C69.654 14.1562 69.8558 14.125 70.0381 14.0625C70.2204 13.9974 70.3779 13.901 70.5107 13.7734C70.6436 13.6458 70.7451 13.4883 70.8154 13.3008L71.9209 13.5C71.8324 13.8255 71.6735 14.1107 71.4443 14.3555C71.2178 14.5977 70.9326 14.7865 70.5889 14.9219C70.2477 15.0547 69.8584 15.1211 69.4209 15.1211Z" fill="#433000"/>
<defs>
<linearGradient id="paint0_linear_516_362" x1="77" y1="21" x2="4.03009e-07" y2="-1.4777e-06" gradientUnits="userSpaceOnUse">
<stop stop-color="#DFB74F"/>
<stop offset="1" stop-color="#FFECA8"/>
</linearGradient>
</defs>
</svg>
